<?xml version="1.0" encoding="utf-8"?>
<!-- Generator: Adobe Illustrator 23.1.0, SVG Export Plug-In . SVG Version: 6.00 Build 0)  -->
<svg version="1.1" id="Layer_1" xmlns="http://www.w3.org/2000/svg" xmlns:xlink="http://www.w3.org/1999/xlink" x="0px" y="0px"
	 viewBox="0 0 1080 325.1" style="enable-background:new 0 0 1080 325.1;" xml:space="preserve">
<style type="text/css">
	.st0{fill:#707070;}
</style>
<g>
	<path class="st0" d="M670,254.3c-62.5,46.2-153.5,70.9-231.9,70.9c-109.9,0-208.4-40.5-283.5-108c-5.7-5.3-0.8-12.5,6.4-8.3
		c80.7,47,180.4,75,283.5,75c69.3,0,145.9-14.4,216.4-44.3C671.5,235.3,680.2,246.7,670,254.3L670,254.3z"/>
	<path class="st0" d="M696.1,224.3c-8-10.2-53.1-4.9-73.1-2.3c-6.1,0.8-7.2-4.5-1.5-8.3c36-25.4,94.7-17.8,101.6-9.5
		c6.8,8.3-1.9,67.5-35.6,95.5c-5.3,4.2-10.2,1.9-8-3.8C687,277,704.1,234.9,696.1,224.3z"/>
	<path class="st0" d="M743.9,141.7c-18.9-10.6-41.3-13.7-62.5-13.3l56.8-81.1c5.3-7.5,8.3-12.1,8.3-15.5V11c0-3.4-3-6.1-6.4-6.1
		H630.2c-3.4,0-6.1,2.3-6.1,6.1v24.6c0,3.4,3.1,6.1,6.4,6h57.2L621.8,136c-4.2,6.1-4.2,12.9-4.2,16.7v25c0,3.8,4.2,7.6,8,5.7
		c37.2-20.1,82.3-18.2,116-0.4c4.2,2.3,8-1.9,8-5.7v-26.1C749.2,147.8,748.1,144,743.9,141.7z M400.7,20.5
		C391.2,7.3,376,1.6,362,1.6c-19.7,0-38.2,10.2-46.2,31.8c-9.1-21.6-22.4-31.8-43.2-31.8c-20.5,0-36,10.2-44,31.8h-0.8V11
		c-0.4-3-2.7-5.7-6.1-5.7h-31.1c-3.4,0-6.4,2.7-6.4,6.1v171.2c0.4,3,3.1,5.3,6.1,5.7h33.3c3.8,0,6.4-2.6,6.7-5.7V91.7
		c0-20.1-0.8-47.4,23.1-47.4c23.5,0,20.5,28.5,20.5,47.4v90.9c0,3.1,2.7,5.7,6.1,6.1h33.5c3.4,0,6.4-2.7,6.4-6.1V91.7
		c0-9.9-0.4-24.3,3-33c3.4-8.7,12.1-14,20.1-14c9.8,0,17,3.4,19.7,14.8c1.6,6.8,0.8,25,0.8,32.2v91c0,3.1,2.7,5.7,6.1,6.1h33
		c3.4,0,6.4-2.7,6.4-6.1V74.3C409,55.7,411.3,34.9,400.7,20.5z M841.3,1.5c-48.5,0-75.4,41.7-75,95.1c0,53.1,26.5,95.5,75,95.5
		c46.9,0,76.5-41.7,76.5-94C917.8,43.9,890.9,1.5,841.3,1.5z M841,157c-26.2,0-25.8-44.7-25.8-65.6s1.5-54.6,26.1-54.6
		c10.6,0,18.2,4.5,22.1,16.7c4.1,13.7,4.9,31.1,4.9,45.5C868.3,121,866.8,157,841,157z M1071.4,21.6c-9.4-14.8-24.2-20.1-39-20.1
		c-23.1,0-36,11-45.5,34.5h-0.8V9.8c-0.8-2.6-3.1-4.9-6.1-4.9h-31.1c-3.4,0-6,2.7-6.4,5.7v171.6c0,3.1,2.7,5.7,6.1,6.1h33.3
		c3.4,0,6.4-2.6,7-6V89.8c0-11.8,0.8-22,5.3-32.6c3.8-8.3,11.3-13.6,19.3-13.6c23.1,0,20.8,27.3,20.8,46.2V183
		c0.4,2.6,3.1,4.9,6.1,5.3h33.3c3.4,0,6-2.3,6.4-5.3V75C1080.1,58.4,1080.1,35.2,1071.4,21.6z M596.5,157.3
		c-6.1-8.7-12.5-15.6-12.5-31.1V74.3c0-22,1.5-42.5-14.8-57.6C556.3,4.2,535.1,0,518.8,0c-31.9,0-67.1,11.7-74.6,51.2
		c-0.8,4.1,2.2,6,4.9,6.8l32.1,3.5c3,0,4.9-3.1,5.7-6.1c2.6-13.7,14-20.1,26.9-20.1c6.9,0,14.4,2.6,18.6,8.7
		c5,6.9,4.2,16.3,4.2,24.3v4.2c-19.3,2.2-44.7,3.7-62.9,11.7c-20.8,9.1-35.6,27.3-35.6,54.6c0,34.5,22,51.9,50,51.9
		c23.4,0,36.7-5.7,54.9-24.3c6,8.8,8.3,13.3,19.3,22.4c2.7,1.5,5.7,1.1,8-0.8c6.8-5.7,19-16.3,26.2-22
		C599.2,164.1,598.8,160.3,596.5,157.3z M530.5,142.1c-5.3,9.5-13.6,15.2-23.1,15.2c-12.9,0-20.5-9.9-20.5-24.3
		c0-28.4,25.4-33.7,49.6-33.7v7.2h0.1C536.6,119.4,537,130.4,530.5,142.1z M158.4,157.3c-6.1-8.7-12.5-15.6-12.5-31.1V74.3
		c0-22,1.5-42.4-14.8-57.6C118.2,4.2,97,0,80.7,0C48.9,0,13.6,11.7,6.1,51.2c-0.8,4.1,2.2,6,4.9,6.8l32.2,3.5c3,0,4.9-3.1,5.7-6.1
		c2.6-13.7,14-20.1,26.9-20.1c6.9,0,14.4,2.6,18.6,8.7c5,6.9,4.2,16.3,4.2,24.3v4.2c-19.3,2.2-44.7,3.7-62.9,11.7
		c-20.8,9.1-35.6,27.3-35.6,54.6c0,34.5,22,51.9,50,51.9c23.4,0,36.7-5.7,54.9-24.3c6,8.8,8.3,13.3,19.3,22.4c2.7,1.5,5.7,1.1,8-0.8
		c6.8-5.7,18.9-16.3,26.1-22C161.1,164.1,160.7,160.3,158.4,157.3z M92.8,142.1c-5.3,9.5-13.6,15.2-23.1,15.2
		c-12.9,0-20.5-9.9-20.5-24.3c0-28.4,25.4-33.7,49.6-33.7v7.2h0.1C98.9,119.4,99.3,130.4,92.8,142.1z"/>
</g>
</svg>
