<?xml version="1.0" encoding="utf-8"?>
<!-- Generator: Adobe Illustrator 23.0.2, SVG Export Plug-In . SVG Version: 6.00 Build 0)  -->
<svg version="1.1" id="Layer_1" xmlns="http://www.w3.org/2000/svg" xmlns:xlink="http://www.w3.org/1999/xlink" x="0px" y="0px"
	 viewBox="0 0 991 1080" style="enable-background:new 0 0 991 1080;" xml:space="preserve">
<style type="text/css">
	.st0{fill:#F26DC6;}
	.st1{fill:#26A3FC;}
	.st2{fill:#7651E6;}
</style>
<g>
	<g>
		<path class="st0" d="M495.71,768.74L162.83,576.56V192.18L495.71,0l332.87,192.18v384.37L495.71,768.74z M234.89,534.96
			l260.82,150.59l260.82-150.59V233.78L495.71,83.2L234.89,233.78V534.96z"/>
	</g>
	<g>
		<g>
			<path class="st1" d="M658.54,1080L325.67,887.81V503.44l332.87-192.18l332.87,192.18v384.37L658.54,1080z M397.72,846.22
				L658.54,996.8l260.82-150.59V545.04L658.54,394.46L397.72,545.04V846.22z"/>
		</g>
		<g>
			<path class="st2" d="M332.87,1080L0,887.81V503.44l332.87-192.18l332.87,192.18v384.37L332.87,1080z M72.05,846.22L332.87,996.8
				L593.7,846.22V545.04L332.87,394.46L72.05,545.04V846.22z"/>
		</g>
	</g>
</g>
</svg>
