<?xml version="1.0" encoding="utf-8"?>
<!-- Generator: Adobe Illustrator 23.0.2, SVG Export Plug-In . SVG Version: 6.00 Build 0)  -->
<svg version="1.1" id="Capa_1" xmlns="http://www.w3.org/2000/svg" xmlns:xlink="http://www.w3.org/1999/xlink" x="0px" y="0px"
	 viewBox="0 0 478.7 478.7" style="enable-background:new 0 0 478.7 478.7;" xml:space="preserve">
<g>
	<g>
		<path d="M454.2,189.1l-33.6-5.7c-3.5-11.3-8-22.2-13.5-32.6l19.8-27.7c8.4-11.8,7.1-27.9-3.2-38.1l-29.8-29.8
			c-5.6-5.6-13-8.7-20.9-8.7c-6.2,0-12.1,1.9-17.1,5.5l-27.8,19.8c-10.8-5.7-22.1-10.4-33.8-13.9l-5.6-33.2
			C286.3,10.4,274,0,259.5,0h-42.1c-14.5,0-26.8,10.4-29.2,24.7l-5.8,34c-11.2,3.5-22.1,8.1-32.5,13.7l-27.5-19.8
			c-5-3.6-11-5.5-17.2-5.5c-7.9,0-15.4,3.1-20.9,8.7L54.4,85.6c-10.2,10.2-11.6,26.3-3.2,38.1l20,28.1c-5.5,10.5-9.9,21.4-13.3,32.7
			l-33.2,5.6C10.4,192.5,0,204.8,0,219.3v42.1c0,14.5,10.4,26.8,24.7,29.2l34,5.8c3.5,11.2,8.1,22.1,13.7,32.5l-19.7,27.4
			c-8.4,11.8-7.1,27.9,3.2,38.1l29.8,29.8c5.6,5.6,13,8.7,20.9,8.7c6.2,0,12.1-1.9,17.1-5.5l28.1-20c10.1,5.3,20.7,9.6,31.6,13
			L189,454c2.4,14.3,14.7,24.7,29.2,24.7h42.2c14.5,0,26.8-10.4,29.2-24.7l5.7-33.6c11.3-3.5,22.2-8,32.6-13.5l27.7,19.8
			c5,3.6,11,5.5,17.2,5.5c3.95,0,7.78-0.78,11.31-2.25c3.54-1.47,6.79-3.65,9.59-6.45l29.8-29.8c10.2-10.2,11.6-26.3,3.2-38.1
			l-19.8-27.8c5.5-10.5,10.1-21.4,13.5-32.6l33.6-5.6c14.3-2.4,24.7-14.7,24.7-29.2v-42.1C478.9,203.8,468.5,191.5,454.2,189.1z
			 M315.7,239.3c0,42.1-34.2,76.3-76.3,76.3c-42.1,0-76.3-34.2-76.3-76.3c0-42.1,34.2-76.3,76.3-76.3
			C281.5,163,315.7,197.2,315.7,239.3z"/>
	</g>
</g>
</svg>
