<?xml version="1.0" encoding="utf-8"?>
<!-- Generator: Adobe Illustrator 23.1.0, SVG Export Plug-In . SVG Version: 6.00 Build 0)  -->
<svg version="1.1" id="Layer_1" xmlns="http://www.w3.org/2000/svg" xmlns:xlink="http://www.w3.org/1999/xlink" x="0px" y="0px"
	 viewBox="0 0 598 441" style="enable-background:new 0 0 598 441;" xml:space="preserve">
<style type="text/css">
	.st0{fill:#F4F4F4;}
</style>
<path class="st0" d="M597.9,85.3l0-0.2l-0.2,0c-20.4-0.9-32.6-5.1-45.5-9.6c-13.8-4.7-28-9.6-53.7-11.8c-5.5-7-10.2-11.3-13.6-14.4
	c-3.7-3.4-6-5.5-6-8.1l0-0.2l-0.2,0c-0.6,0.1-1.1,0.3-1.6,0.5c-1,0.4-1.9,0.7-3.2,0.3l-94.1-24.4l-0.1,0l-0.1,0
	c-18.3,8.6-41.7,11.1-64.1,6.8C294.9,20.3,278,11,271.3,0L271,0.1c-0.2,10.4,6.7,21.8,21.3,34.9c-29.4,6.3-54.2,3.3-75.7-9.2
	l-0.3,0.2c4.6,10.3,12.9,19,24.6,25.9c-27.6,10.6-54.6,10.8-80,0.7l-0.2,0.3c5.2,7.8,14.7,15.4,28.3,22.7
	c-39.6,16.4-64.1,18.9-74.8,7.6l-0.3,0.2c2.8,8,14.2,15,34.8,21.4l-1.4,0.5c-17.6,6.1-58.8,20.3-76.5,6.9l-0.3,0.2
	c5.8,8.8,15.8,16.4,30.5,23.1c-10.7,5.2-23.6,9-39.3,11.5c-11.6,1.9-24.3,3-31-2.8l-0.3,0.2c6,8.8,16.1,15.9,30.1,21
	c-25.8,18.2-44.9,22-60.2,12.2L0,178c11.8,12,28.1,26.4,50.8,30.9c-0.7,2.7-2.2,3.7-4.1,4.8c-1.9,1.1-4,2.4-5.9,5.8l-0.1,0.2l0.3,0
	c2.8,0.3,5.5-0.8,8.2-1.9c2.9-1.2,5.7-2.3,8.5-1.7c-3.7,5.5-3.8,10.4-3.8,15.6c0,6.5-0.1,13.2-7.7,21.6l-0.3,0.3l0.4,0
	c6.3,0.3,8.4-0.8,10.9-2.1c3.5-1.7,7.4-3.7,23.6-2.8c3.5,0.2,7-0.8,11.5-2.5c-4.7,10.3-4.5,17.1-4.2,23.8c0.3,7.3,0.6,14.1-5.5,24.8
	l0.2,0.3c9.3-4.8,18.3-5.4,27-6.1c5.4-0.4,11.1-0.8,16.6-2.2c0.3,14.2-0.2,29.4-8.7,45.8l0.3,0.2c8.9-5.7,16.7-5.7,25-5.6
	c8.2,0.1,16.7,0.1,27.6-4.9c-4.5,7.6-3.9,15.3-3.3,22.7c0.6,7.9,1.2,15.3-3.8,22.7l0.2,0.3c8.2-4.8,16.2-4.2,24-3.6
	c6.9,0.5,13.4,1.1,19.8-2.1c-3.5,41,9.1,62.1,23.3,78.8l0.3-0.1c0.1-2.4,0.3-4.8,0.4-7.2c1-20.1,2-40.8,20-52.8
	c3.9,7.4,8.6,15.1,14.4,23.6l0.3-0.1c-0.3-28.8,6.3-48.5,20.7-61.8c3.8,10.1,9.5,19.1,17.6,27.7l0.3-0.2c-6.1-26-5.5-48.1,17.4-71.8
	c4,10.7,9,20.6,14.8,29.5l0.3-0.1c-2.2-18.2-2.3-41.5,16.8-60.6c2.5,7.1,6.5,13.9,11.8,20.2l0.3-0.1c-0.6-16.3,5.6-34,17.1-48.7
	c11.5-14.7,26.1-23.6,40.1-24.4c8.6-0.5,17.9,4.9,25.1,14.4c0.6,11.2-0.9,12.7-2.5,14.4c-1.1,1.2-2.4,2.5-3.1,6.9l0.3,0.2
	c6.8-5.7,14.6-8,24.5-7.2c0.1,2.9-0.6,4.8-1.2,6.7c-1.3,3.8-2.5,7.8,1.9,20.5l0.4,0c1-11.2,7.1-14.2,14.3-17.6
	c8.9-4.3,20-9.7,24.1-33.6c14-12.3,19.8-23.8,17.7-35.1l0-0.1l-0.1,0c-6.7-2.3-10.6,1.7-14.8,6c-3,3.1-6.2,6.3-10.6,7.3
	c-1.1-5.3-4.4-9.6-10-13.1l-0.2-0.1l-0.1,0.2c-1.4,4.1-3.8,6.9-7.4,8.5c0.8-5.9-1.4-11.9-6.4-17.8l-0.1-0.2l-0.1,0.2
	c-5.2,7.1-11.8,8.2-17.7,8.4c0.2-7.5-2.3-14.4-7.7-21.2l-0.2-0.3l-0.1,0.3c-1.9,6-5.3,8.2-11.2,7c2.1-7.2,0.8-12.4-3.8-15.5
	l-0.2-0.1l-0.1,0.2c-1.7,3.8-5.1,5.6-9.4,5.1c-5.6-0.7-10.7-5.3-11.5-10.1c-0.8-4.9,2.7-9.6,9.8-13.1c2.2,7.2,6.1,12.4,11.9,16
	l0.1,0.1l0.1-0.1c3.8-4.4,7.3-7.8,12.4-9.9c1.5,1.7,2.6,3.7,3.7,5.6c2.3,4.1,4.7,8.4,10.5,9.6l0.1,0l0.1,0c2-1.3,3.8-3,5.7-4.9
	c2.6-2.5,5.3-5,8.7-6.9c1.9,2.3,2.5,4.7,3.1,7.3c0.7,2.8,1.3,5.7,4,8.6l0.1,0.1l0.1,0c3-0.7,5.3-3,7.5-5.3c2.8-2.9,5.5-5.7,9.5-4.8
	c3.9,2.3,4.8,6.9,3,14.2l0,0.2l0.2,0c8,1.7,16.1-1.2,25-8.8c0.9,5.8-3.9,13-9.1,19.8l-0.2,0.3l0.3,0c5,0.6,11.5,0.8,17.6-3
	c6.1-3.9,11.1-11.3,15.3-22.7c10-3.3,15.7-9,17.5-17.3c9.3-3.3,14.9-11.1,16.7-23.5C594.9,102.6,598.6,94.4,597.9,85.3z
	 M491.4,148.5c-1.4,1.9-3.5,3.3-5,4.1c-2.2-2.9-3.2-5.8-3-8.8C486.9,144.6,489.7,146.2,491.4,148.5z M424.8,163
	c3-0.3,6.2-0.8,9.3-2.4c1.1,3.6,0.1,6.6-3.1,9.2C427.9,168,425.8,165.7,424.8,163z M439,174.3c4.1-0.4,7.5-1.2,10.7-2.6
	c2.6,2.9,2.9,6.2,1.2,10.1C444.3,180.2,440.4,177.8,439,174.3z M461.9,189.3c3.7-3.1,7.5-4.6,12.2-4.6c0.2,0,0.3,0,0.5,0
	c1.1,3.5,0.9,6.8-0.4,9.9C468.8,193.8,464.7,192,461.9,189.3z M483.6,200.2c2.5-3.2,4.8-5.6,7-7.5c1.4,0.8,2.3,1.8,2.6,3
	c0.5,2.1-0.5,4.9-2.9,8.4C487.4,203.3,485.2,202.1,483.6,200.2z M524,149.1c-1.3,7.9-7.2,10.6-13,12.2c0-4.6-0.8-8.5-2.3-11.9
	C514.3,147.9,519.4,147.8,524,149.1z M470.5,141.2c-3.6,2.9-6.3,6-8,9.2c-5.5-4.1-8.2-7.9-8.2-11.8
	C459.3,135.7,465,136.6,470.5,141.2z M470.4,112.2l0-0.4c-13.6-3.1-27.7,0.8-43.1,12c-14.6,10.6-28.8,26.6-40.8,40.9l-0.1,0.1
	l0.1,0.1c3.6,6.6,4.6,11.2,3.8,17.6l0.3,0.1c1.4-1.9,2-5.2,2.7-9c1.2-6.4,2.8-14.2,8.5-18.9l0.3,0.9c2.6,8.3,5,16.1,12.1,19.5
	l0.2-0.3c-3.1-5.1-6.1-11.3-4.9-19.6c1.4,6,10.6,14.2,28,25.2c17.8,11.2,42.2,23.9,63.7,34.9c0.2,21-9.3,25.1-18.5,29.2
	c-3.2,1.4-6.3,2.7-8.8,4.8c0.8-1.4,1.8-2.6,2.8-4c3.8-4.9,7.8-9.9,1-18.6l-0.3,0.1c-0.4,4.1-1.6,6.8-3.6,8.4
	c-2.8,2.2-6.8,1.7-10.6,1.3c-2.8-0.3-5.4-0.6-7.6,0c-1-7.4-4.4-13.8-9.7-18.6c-5.1-4.6-11.8-7.5-19.4-8.3
	c-11.9-1.2-24.6,2.7-35.8,11c-12.9,9.6-23.3,24.6-30.2,43.5c-2.3-11.1-3.6-23.7,5.5-44.5c8-2.5,13.7-5.6,17.6-9.7
	c4.6-4.8,6.6-11,6.1-18.7l-0.4-0.1c-7.4,18-19,20.7-30.3,23.2c-5.5,1.2-11.1,2.5-16.2,5.5c4-7,3.7-14.5,3.5-21.7
	c-0.3-8.2-0.5-15.9,5.3-22.3c2.2-2.3,2.8-10.3,0.4-13.2l-0.2-0.2l-0.1,0.3c-5.5,11.8-16.8,12.5-27.8,13.1
	c-6.3,0.4-12.8,0.8-18.1,3.3c3.8-6.6,3.4-12.6,3-18.8c-0.6-8.5-1.2-17.4,8.1-29.5l-0.3-0.3c-15.4,10.7-22.4,10.3-29.7,9.8
	c-5.2-0.3-10.5-0.6-19.1,2.9c3.1-5.9,2.5-11.3,1.9-17.1c-0.9-8.4-1.7-17.2,8.6-28.4l-0.2-0.3c-23,9.7-30.6,6.7-38.1,3.7
	c-3.6-1.5-7.4-3-12.9-3c0,0,0,0-0.1,0c2-2.6,3.2-5.6,4.5-8.8c2.4-5.8,4.9-11.8,12.2-15.9l0.1-0.1l-0.2-6.8l-0.3,0.2
	c-5.4,3.7-9.4,7.2-12.7,11c-15.4-0.7-28.8-4.6-39.6-11.3c20.6-0.3,43.4-4.4,71.6-12.8l0-0.4c-9.3-1.2-17.2-4.6-24-10.6
	c18.9,1.6,43.9,2.7,70.3-2.7l0-0.4c-9.7-4-14.8-10.7-18.2-16.3c29.4,13.5,57.3,14,87.9,1.4c9.5,2.3,18,3.9,26.8,5.1
	c-3.9,2.3-13.6,2-21.6,1.4l-0.1,0.3c5.7,5,17.2,5.1,29.4,5.2c13.1,0.1,26.7,0.2,32.6,6.9c-5.1,0.9-9.7,3.1-14.1,5.2
	c-7.9,3.8-15.4,7.5-25.8,3.9l-0.2,0.3c5.4,5.4,16.5,3.3,28.2,1.1c3-0.6,6.1-1.2,9.1-1.6c8.2-1.3,19.8-2.3,25.3,2.9
	c2.6,2.5,3.7,6.3,3.2,11.3c-23.8,0.2-49,1.5-77,3.9l0,0.4c20.5,4.1,22.7,6.9,26.1,11.3c3,3.8,6.7,8.5,23.3,16.1
	c-52.1,21.5-54.8,29.2-60.3,44.4c-2,5.6-4.3,12-9.5,20.4l0.3,0.2c6.5-4.5,7.8-8.3,9.2-12.4c0.3-0.7,0.5-1.5,0.8-2.2l0.3-0.9
	c4.1-10.8,8.8-23,55.6-41.8c5.9-2.4,7.8-2.6,14.2-3.5c1.3-0.2,2.9-0.4,4.7-0.6l0-0.4l-7.4-0.5c29-19,62.7-26.9,88.1-20.6
	c15.4,3.8,26.9,12.5,34.1,25.7l0,0.1l0.1,0c3.3,0.2,6.1-0.4,8.8-2.1l0.2-0.1l-0.2-0.2c-2.2-1.7-3.1-2.9-2.8-3.7
	c0.3-1,2.5-1.6,6.5-1.7l0.2,0l-0.1-0.2c-0.3-1-0.9-1.8-1.7-2.4c-1.9-1.1-5.2-1-10.2,0.3c-2.8-2.6-4.4-5.2-4.9-8.1l20.6,1.2
	c-2.9,11.8-6.3,17.3-11.1,17.8l-0.2,0l0,0.2c-0.4,11.3-7.4,17.1-13.4,20.9l-0.1,0l0,0.1c-3.4,8.5-8.1,13.8-14.6,16.2
	c-14.6,5.5-35.1-5-55-15.1c-12.9-6.6-25.1-12.8-35.5-14.7C463,113.3,466.9,112.7,470.4,112.2z M314.6,244.8
	c-0.6-5.8-1.1-11.7,3.3-16.8c6.2,0.4,11.7-1.5,17.2-5.9c0.2,6.2,1.6,10.4,4,12.4l0.3,0.2l0-0.4c0.4-6.5,6.7-10.6,18.5-12.4
	c-5.1,23.3-14.9,25.1-28.3,27.7c-4.4,0.9-9.5,1.8-14.8,3.7C315.1,250.5,314.9,247.6,314.6,244.8z M255.5,341.9
	c10.6-2.3,19.3-7.2,26.6-15.1l1.9,6c-12.7,12.6-20.2,27.3-23,45.1C255.3,366.6,253.5,354.9,255.5,341.9z M218.1,359.7
	c4.8-7.9,13.9-12.6,27.9-14.4c-1.5,10.5,0.3,20,2.2,28c-10.5,6-18.1,19.5-24,42.4C217.2,396.2,209.3,374.2,218.1,359.7z M76.5,170.9
	c-11.1,6.2-18.1,16.3-21.8,31.6c-13.6-1.5-24.2-5.9-32.4-13.4c18.7-2.8,34.3-9.8,46.4-20.8L76.5,170.9z M267.9,283.2
	c-3.4,5.3-10.1,7.2-17.1,9.1c-6.2,1.7-12.5,3.4-17.8,7.6c1.9-4.5,0.4-9.6-1.2-14.8c-2.4-8-5.1-17,2.6-27.3
	c7.6-10.1,15.2-11.8,21.8-11.8c1.9,0,3.7,0.1,5.4,0.3c3.9,0.3,7.4,0.6,9.9-1.1c-0.9,5.8-0.8,11.8-0.8,17.6
	C270.7,271.2,270.7,278.7,267.9,283.2z M263.5,122.1c0.5,8.4,1.1,16.3-2.5,20.7c-6.2,7.5-17,7.9-28.3,8.2c-2.9,0.1-5.9,0.2-8.8,0.4
	c2.2-4.9,3-10.5,3.8-16c1.6-11,3.3-22.4,16.2-28.1c5.6,1.2,11.7,2.1,19.3,2.6C263,113.9,263.3,118.1,263.5,122.1z M253.2,169.6
	c-0.1,7.3-0.2,15.5-5.5,21.9c-4.9,5.9-15.5,7.7-24.9,9.3c-5.4,0.9-10.5,1.8-14,3.3c3.5-4.3,3.4-11.1,3.4-18.3
	c-0.1-8.8-0.1-17.9,6.5-22.9c9.5-7.1,18.2-6.9,25.2-6.8c4.7,0.1,8.8,0.2,12.2-1.9C253.4,158.1,253.3,163.7,253.2,169.6z
	 M221.9,125.2c0.3,16.1-3.1,27.2-10.5,34c-10.1,9.3-26.5,8.9-39.7,7.4c3-4.5,4.3-8.9,5.6-13.3c2.5-8.7,5.2-17.7,22.2-27.3
	C207.3,129,214.4,128.8,221.9,125.2z M206.2,171c-0.5,3.2-0.9,6.5-1.2,9.6c-1.2,10.9-2.4,21.2-9.1,27.3c-8.4,7.7-22,10.5-35.1,13.2
	c-1.4,0.3-2.9,0.6-4.3,0.9c3.9-5,4.2-11.5,4.5-18.3c0.4-7.8,0.7-15.9,6.7-22.2c6.5-6.9,15.2-7.4,23.6-7.8
	C196.8,173.4,202.1,173.2,206.2,171z M256.9,191.8c2.3-5.1,2.5-11,2.7-16.7c0.4-11.7,0.8-23.8,20.2-29.7l21.4,0.3
	c0.1,2.3,0.2,4.6,0.3,7.1c0.5,9,1.1,19.3-2.3,25c-5.2,8.7-14.9,9.3-24.3,9.9C268.2,188.2,261.7,188.6,256.9,191.8z M168.3,155.8
	c0,6.4-6.4,12.7-13.3,18.6l0.1,0.3c3.7,0.1,7-0.4,10.1-1.4c-6.4,6.4-10,13.2-10.8,20.1c-12.1,6.5-23.9,5-34.9,2.8
	c4.7-4.2,6.4-10.5,8.2-17.3c2.8-10.4,5.7-21.2,20.2-24.5C154,156.9,160.7,157.3,168.3,155.8z M122.8,201.9
	c11.2,3.3,20.8,3.8,29.9,1.6c1.1,14.3-3.9,20.1-9.2,24.8l-0.2,0.2l0.3,0.1c1.6,0.5,3.2,0.7,4.8,0.4c-10.2,8.8-24.6,10.4-43.1,10.3
	c0-0.7,0-1.5,0-2.2C105.5,225.1,105.8,208.7,122.8,201.9z M147,252.8c1-7.3,1.9-14.3,6.4-19c5.4-5.7,15-7.8,25.2-10
	c3.5-0.8,7.1-1.5,10.5-2.5c-0.8,6-0.9,11.7-0.9,16.8c-0.1,8.6-0.2,15.3-3.4,20c-4.8,7-13.3,7.9-24.2,9.1c-5.3,0.6-11.3,1.2-17.8,2.7
	C145.4,264.5,146.2,258.5,147,252.8z M195.5,239.9c-0.4-8.8-0.8-17.9,7.5-25c9.8-8.5,18.8-8.7,26.8-8.9c4.5-0.1,8.8-0.2,12.8-1.8
	c-3.3,4.1-3.8,11.1-4.4,18.5c-0.6,8.3-1.2,16.9-5.7,22.3c-6.2,7.6-15,7.7-23.4,7.9c-5.8,0.1-11.2,0.2-15.7,2.6
	C196,251.3,195.8,245.8,195.5,239.9z M294.8,210.3c-0.1-7.1-0.2-15.2,10-23c8.7-6.6,17.5-6.5,25.3-6.4c4.3,0,8.4,0.1,12.1-1
	c-2.5,7-2.7,14.3-2.8,21.4c-0.1,3.5-0.1,7.2-0.5,10.8c-12,9.2-22.4,9.6-32.4,10c-4.9,0.2-9.9,0.4-15,1.5
	C294.9,219.8,294.9,215.2,294.8,210.3z M212.6,103.6l-0.2,0.2l0.3,0.1c2.9,0.7,5.2,0.3,7.7,0c3.7-0.5,7.9-1.1,15,1.3
	c-4.1,2.6-6.9,5.9-8.6,10.2c-14.3,8.8-21.7,6.5-28.7,4.2c-3.2-1-6.6-2.1-10.6-2.1c-0.3,0-0.6,0-0.9,0c1.3-2.6,2.1-5.7,2.8-9
	c1.9-8.6,4.4-19.2,19.9-27.9c5.8,2.2,11.9,2.8,18.3,1.9C223.5,90.7,218.6,97.6,212.6,103.6z M123.2,152.6l0.1,0.3
	c4.1,0.5,7.5,0.3,10.7-0.7c-7.5,8-12.1,16.5-13.8,26c-6.6,0.9-12.5-0.1-18.3-1.2c-3.6-0.7-7.3-1.3-11.2-1.5c4.5-4.4,7.8-9,11-13.5
	c7.5-10.5,14-19.5,33-22.3C132.1,144.9,128.2,149.2,123.2,152.6z M185,273.3c5.4-8.3,17-12.9,38.6-15.2c-3.7,7.8-1.7,16.5,0,24.2
	c1.6,7,3.1,13.7-0.1,18.3c-2.5,3.7-8.9,4.7-19.4,6.3c-6,0.9-13.5,2.1-22.5,4.1C180.1,294.2,179.5,281.7,185,273.3z M245.8,227
	c-0.7-8.6-1.5-18.4,9.6-27.4c5.5-4.5,11.1-5.4,16.3-5.4c1.8,0,3.5,0.1,5.1,0.2c5,0.3,9.3,0.5,12.8-1.9c-1.8,2.9-1.6,6.7-1.4,11
	c0.4,7.2,0.9,16.2-7.7,25.9c-8.1,9.1-15.1,8.6-22,8.2c-4.9-0.3-9.5-0.6-14.2,2.5C246.6,236.7,246.2,232.2,245.8,227z M181.6,108.2
	c1.1,3.3-1.5,7.9-7.8,13.8l-0.2,0.2l0.2,0.1c2.1,1,4.5,0.9,7,0.7c3-0.2,6.1-0.4,9,1.2c-12.9,6.2-15.5,13.5-17.4,18.8
	c-2.8,7.7-4.2,11.5-33.1,3.2c4.6-4.3,6-10.5,7.3-16.5c1.3-6,2.7-12.3,7.4-16.5C159.3,108.5,168.3,106.9,181.6,108.2z M76.5,186.2
	l0.1,0.4l0.3-0.3c4.9-5.8,18.6-6.1,40.6-0.8c-3.7,6.7-8.7,11.4-13.1,15.2l-0.2,0.2l0.2,0.1c1.5,0.8,3.3,1.1,5.6,0.9
	c-7.2,9.9-23.4,12.1-50.8,7c7.8-18.7,13.6-31.2,21.5-32.1C77.3,179.5,76,182.5,76.5,186.2z M105,248.4c3.6-2.1,8.7-2.5,15.7-3
	c5.3-0.4,11.9-0.9,19.5-2.3c-2.2,6.8-2.7,12.6-3.2,17.2c-1.4,14.4-2,20.3-42.2,23c1.7-3,1.3-7.2,1-11.6
	C95.2,263.7,94.5,254.5,105,248.4z M142.8,96.2c19.4-3.2,37-8.4,53.8-15.7c-7.1,7.1-11.1,14-12.1,21.2
	C171.1,103.2,157.8,101.4,142.8,96.2z M90.8,124c17.7-0.6,36.6-4,56.2-10.2c-3.9,5.4-7.1,12.1-10.2,21.6
	C119.6,136.4,104.6,132.7,90.8,124z M89,167.7c-13.9-2.2-26.1-6.6-37.4-13.4c12.6-0.7,24.2-3.9,35.4-7c8.7-2.4,17.8-4.9,27.4-6.2
	C100.9,148,94.2,157.9,89,167.7z M61.5,233.4c0.6-7,1.2-14.3,7.1-16.8c8.4,2.5,19.1,2.5,31.5,0.1c-0.9,3.7-0.7,7-0.5,10
	c0.2,3.8,0.4,6.7-1.8,9.2c-3.8,4.2-14.8,6.4-37.8,7.6C60.9,240.4,61.2,236.9,61.5,233.4z M133.8,303.2c0.1-6.9,0.2-14.1,3.4-19.4
	c6-9.8,24.5-11.7,39-11.4c-2.4,7.2-2.6,14.3-2.8,20.6c-0.2,8.6-0.4,16-5.8,21c-5.8,5.4-17.3,7.5-36.3,6.5
	C133.7,315.6,133.8,309.3,133.8,303.2z M176,342.7c-0.1-5.8-0.1-11.9,2.9-17.2c4.9-8.5,13.8-9.6,24.2-10.8
	c6.5-0.8,13.2-1.6,19.8-4.2c0,2.6,0,5.4,0.1,8c0.3,11.3,0.6,22.9-7.3,30.7c-7.4,7.2-21.1,10.2-41.9,9.2
	C176.1,353.5,176,348,176,342.7z M232.1,330.6c-0.1-1-0.2-1.9-0.2-3c0-9.8,0.5-15.4,3.5-19.2c3.7-4.7,10-6.5,16.7-8.3
	c1.6-0.4,3.2-0.9,4.8-1.4c4.2-1.3,7.2-3,10.1-4.6c4.7-2.6,9-5.1,17.7-5.8c-0.1,2.4-0.7,4.6-1.3,6.7c-0.6,1.9-1.1,3.6-1.1,5.4
	c-0.8,25.4-8.9,27.7-35.6,35.4c-4.5,1.3-9.5,2.7-15.2,4.5C232.7,335.1,232.4,332.8,232.1,330.6z M278.2,262.4
	c-0.3-7.5-0.7-15.3,3-21.4c4-6.8,12.7-10.8,26.5-12.3c-1.4,5.3-1.4,9.8-1.4,14.5c0,7,0.1,14.2-5,24.6l0.3,0.2
	c5.7-4.9,12.4-9.4,22.8-10c-10.6,21.8-21.8,22.1-32.7,22.4c-5.3,0.1-10.8,0.3-16.2,2.9C278.8,277.3,278.5,269.7,278.2,262.4z
	 M430.1,83c-3.5-4-7.1-8.2-11.8-10.1c14.8-0.8,28.5,7,38.6,12.7c2,1.1,3.9,2.2,5.6,3.1C445,100,437.8,91.7,430.1,83z M442.6,73.4
	c8.2-1,16.5-1.3,23.4-0.6c0.3,3-0.9,6.4-3.1,9.2C456.3,78.1,448.3,75.2,442.6,73.4z M479.7,81.5c-3.5,1.2-6.8,2.4-10.1,3.4
	c2.6-4.1,4.2-8.2,4.9-12.5c4.3,4,9.2,5.1,14.5,3.2l0-0.4c-4.5-1-8-3-10.5-6c4-6.1,2.6-12.7-4-19.6c5.4,2.7,11.7,9.9,18.7,21.4
	l0.1,0.1l0.1,0c10.3-0.9,19.4-0.5,27.8,1.4C504.2,73,491.8,77.3,479.7,81.5z M352.2,258.5c-10,7.6-17.1,21-21.4,41.1
	c-3.4-12.7-5.7-27.6,2-42.5c7.9-1.7,14.2-4.7,19.8-9.2L352.2,258.5z M512.2,145.1c-2.1,0-4,0.1-5.5,0.9c-2.3-1.1-4.7-1.7-7.3-1.7
	c-1.6,0-3.2,0.2-4.9,0.6c-5.1-6.1-10.7-8.1-16.8-5.9c-8.4-8-17.8-9.5-27.7-4.5c-1.2-6.1-4.7-10.4-10.3-12.8
	c16.6-7.9,28.2-1.1,41.6,6.8c7.8,4.6,16.7,9.9,27.6,12.6C509.5,142.3,510.5,143.9,512.2,145.1z M431.3,127.4
	c7.1-0.9,11.3,1.7,13,7.9c-3.6,2-6.6,4.8-9.4,8.9C429.5,139.1,428.4,133.7,431.3,127.4z M293.6,287.2c8.7-0.7,17.6-4,26.5-9.7
	l0.9,11.7c-13.5,11.4-22.3,28.3-26.8,51.6C288.6,324,288.5,306.5,293.6,287.2z M497.8,203.6c6.5-1.1,13.5-6.2,21.6-15.6
	c1,6.7-5.6,14.4-12.6,22.6c-0.5,0.6-1,1.2-1.5,1.8c-5.9-2.1-8.8-3.9-9.2-5.8C495.9,205.6,496.4,204.6,497.8,203.6z M545.8,152.5
	c-5.2,15.1-11.1,18.2-16.3,18.9c4-5.8,6.2-11.9,6.9-19.6C540,151.9,543,152.1,545.8,152.5z"/>
</svg>
